# xmcd CD database file
#
# Track frame offsets:
#	187
#	23125
#	41657
#	60152
#	84522
#	105020
#	126937
#	144862
#	165595
#	186322
#
# Disc length: 2704 seconds
#
# Revision: 2
# Processed by: cddbd v1.5.1PL0 Copyright (c) Steve Scherf et al.
# Submitted via: CDex 1.60beta1
#
DISCID=720a8e0a
DTITLE=TREAT - Dreamhunter
DYEAR=1987
DGENRE=Hard Rock
TTITLE0=Sole Survivor
TTITLE1=Yoy're The One I Want
TTITLE2=Take Me On Your Wings
TTITLE3=Best Of Me
TTITLE4=Dancing On The Edge
TTITLE5=Outlaw
TTITLE6=World Of Promises
TTITLE7=One Way To Glory
TTITLE8=Save Yourself
TTITLE9=The Winner
EXTD=YEAR: 1987
EXTT0=
EXTT1=
EXTT2=
EXTT3=
EXTT4=
EXTT5=
EXTT6=
EXTT7=
EXTT8=
EXTT9=
PLAYORDER=
